<?xml version="1.0" ?><!-- Uploaded to: SVG Repo, www.svgrepo.com, Generator: SVG Repo Mixer Tools -->
<svg fill="#000000" width="800px" height="800px" viewBox="0 0 32 32" id="fork" version="1.1" xml:space="preserve" xmlns="http://www.w3.org/2000/svg" xmlns:xlink="http://www.w3.org/1999/xlink"><path d="M29.8,9.5c-0.3-0.4-0.8-0.6-1.2-0.4L24.1,11l1.8-3.5c0.2-0.4,0.1-0.9-0.2-1.2c-0.3-0.3-0.8-0.4-1.2-0.2L21,7.9l1.8-4.6  c0.2-0.4,0-0.9-0.4-1.2c-0.4-0.3-0.9-0.2-1.3,0.1l-7,7c-1.8,1.8-2,4.5-0.7,6.5L2.9,24.9C2.3,25.4,2,26.2,2,27s0.3,1.6,0.9,2.1  C3.4,29.7,4.2,30,5,30s1.6-0.3,2.2-0.9l9.1-10.7c0.9,0.6,1.8,0.8,2.8,0.8c1.3,0,2.6-0.5,3.6-1.5l7-7C30,10.4,30.1,9.9,29.8,9.5z   M5.7,27.7c-0.4,0.4-1,0.4-1.4,0C4.1,27.5,4,27.3,4,27s0.1-0.5,0.2-0.7l9.8-8.4L5.7,27.7z M21.3,16.3c-1.2,1.2-3.2,1.2-4.5,0  l-1.2-1.2c-1.2-1.2-1.2-3.2,0-4.5l3.5-3.5l-0.9,2.1c-0.2,0.5-0.1,1,0.3,1.3c0.4,0.3,0.9,0.4,1.3,0.2l2.7-1.4L21.3,12  c-0.2,0.4-0.2,1,0.1,1.3c0.3,0.4,0.9,0.5,1.3,0.3l2.1-0.9L21.3,16.3z"/></svg>