<svg width="22" height="23" viewBox="0 0 22 23" fill="none" xmlns="http://www.w3.org/2000/svg">
<path fill-rule="evenodd" clip-rule="evenodd" d="M0.351562 7.05132C0.351562 7.05132 0.351562 4.15658 0.351562 3.28816C0.351562 1.66422 0.709896 0.642375 2.86563 0.642375C5.02136 0.642375 17.8124 0.52948 19.3289 0.52948C21.1922 0.52948 21.499 1.8408 21.499 3.29106C21.499 4.04948 21.5276 6.86316 21.5276 6.86316L0.351562 7.05132ZM5.70936 9.69132C7.88516 9.69132 7.93963 13.165 5.85843 13.165C3.39023 13.1534 3.57083 9.69132 5.70936 9.69132ZM5.85843 18.3234C3.39023 18.3234 3.56509 14.8497 5.70936 14.8497C7.85363 14.8497 7.93963 18.3234 5.85843 18.3234ZM11.0184 9.69132C13.1942 9.69132 13.2487 13.165 11.1675 13.165C8.71076 13.1534 8.89136 9.69132 11.0299 9.69132H11.0184ZM11.1675 18.3234C8.69929 18.3234 8.87416 14.8497 11.0184 14.8497C13.1627 14.8497 13.2602 18.3234 11.179 18.3234H11.1675ZM16.3275 9.69132C18.5062 9.69132 18.5606 13.165 16.4794 13.165C14.0342 13.1534 14.2148 9.69132 16.3504 9.69132H16.3275ZM2.3267 8.70132L2.44996 20.3208C2.44996 20.3208 10.2989 20.0718 12.4518 20.0718C16.6256 20.0718 15.2812 15.7153 15.2812 15.7153L19.7761 15.585L19.8134 8.70132H21.3241L21.4674 22.6134L0.595229 22.8161L0.658296 8.70132H2.3267Z" fill="#3477F6"/>
</svg>
