<?xml version="1.0" encoding="iso-8859-1"?>
<!-- Uploaded to: SVG Repo, www.svgrepo.com, Generator: SVG Repo Mixer Tools -->
<svg fill="#000000" height="800px" width="800px" version="1.1" id="Layer_1" xmlns="http://www.w3.org/2000/svg" xmlns:xlink="http://www.w3.org/1999/xlink" 
	 viewBox="0 0 512 512" xml:space="preserve">
<g>
	<g>
		<g>
			<path d="M490.667,149.333v-42.667c0-4.212-1.247-8.329-3.583-11.834L448,36.207V21.333C448,9.551,438.449,0,426.667,0H85.333
				C73.551,0,64,9.551,64,21.333v14.874L24.916,94.833c-2.336,3.504-3.583,7.622-3.583,11.834v42.667
				c0,18.881,8.255,35.891,21.333,47.623v101.71c-11.782,0-21.333,9.551-21.333,21.333v106.667V448v42.667
				c0,11.782,9.551,21.333,21.333,21.333C54.449,512,64,502.449,64,490.667v-21.333h384v21.333c0,11.782,9.551,21.333,21.333,21.333
				c11.782,0,21.333-9.551,21.333-21.333V448v-21.333V320c0-11.782-9.551-21.333-21.333-21.333v-101.71
				C482.412,185.224,490.667,168.214,490.667,149.333z M64,113.126L103.084,54.5c2.336-3.504,3.583-7.622,3.583-11.834h298.667
				c0,4.212,1.247,8.329,3.583,11.834L448,113.126v36.207c0,11.685-9.649,21.333-21.333,21.333
				c-11.685,0-21.333-9.649-21.333-21.333v-42.667h-42.667v42.667c0,11.685-9.649,21.333-21.333,21.333
				c-11.685,0-21.333-9.649-21.333-21.333v-42.667h-42.667v42.667c0,11.685-9.649,21.333-21.333,21.333
				c-11.685,0-21.333-9.649-21.333-21.333v-42.667H192v42.667c0,11.685-9.649,21.333-21.333,21.333
				c-11.685,0-21.333-9.649-21.333-21.333v-42.667h-42.667v42.667c0,11.685-9.649,21.333-21.333,21.333
				c-11.685,0-21.333-9.649-21.333-21.333V113.126z M64,426.667v-85.333h384v85.333H64z M426.667,298.667H85.333v-85.333
				c16.365,0,31.33-6.197,42.667-16.365c11.337,10.168,26.302,16.365,42.667,16.365s31.33-6.197,42.667-16.365
				c11.337,10.168,26.302,16.365,42.667,16.365s31.33-6.197,42.667-16.365c11.337,10.168,26.302,16.365,42.667,16.365
				s31.33-6.197,42.667-16.365c11.337,10.168,26.302,16.365,42.667,16.365V298.667z"/>
			<path d="M149.333,362.667C137.557,362.667,128,372.224,128,384s9.557,21.333,21.333,21.333s21.333-9.557,21.333-21.333
				S161.109,362.667,149.333,362.667z"/>
			<path d="M256,362.667c-11.776,0-21.333,9.557-21.333,21.333s9.557,21.333,21.333,21.333c11.776,0,21.333-9.557,21.333-21.333
				S267.776,362.667,256,362.667z"/>
			<path d="M362.667,362.667c-11.776,0-21.333,9.557-21.333,21.333s9.557,21.333,21.333,21.333S384,395.776,384,384
				S374.443,362.667,362.667,362.667z"/>
		</g>
	</g>
</g>
</svg>